# xmcd
#
# Track frame offsets: 
#        150
#        13891
#        27245
#        45731
#        59907
#        70280
#        87085
#        100450
#        116132
#        129018
#        146505
#        159702
#        188414
#
# Disc length: 2909 seconds
#
# Revision: 0
# Processed by: cddbd v1.5.2PL0 Copyright (c) Steve Scherf et al.
# Submitted via: ExactAudioCopy v0.99pb5
#
DISCID=b50b5b0d
DTITLE=Arielle Dombasle - Diva Latina
DYEAR=1900
DGENRE=
TTITLE0=Porque Te Vas
TTITLE1=Mala Vida
TTITLE2=Hijo De La Luna
TTITLE3=El Gato Montes
TTITLE4=Gopher Mambo
TTITLE5=La Luz
TTITLE6=Mambo 5
TTITLE7=La Colegiala
TTITLE8=Pata Pata
TTITLE9=Hasta Siempre
TTITLE10=Salvaje Corazon
TTITLE11=Yo Le Decia
TTITLE12=Yo Le Decia
EXTD=
EXTT0=
EXTT1=
EXTT2=
EXTT3=
EXTT4=
EXTT5=
EXTT6=
EXTT7=
EXTT8=
EXTT9=
EXTT10=
EXTT11=
EXTT12=
PLAYORDER=
